<?xml version="1.0" encoding="UTF-8" standalone="no"?>
<svg
   width="738"
   height="174"
   viewBox="0 0 738 174"
   fill="none"
   version="1.1"
   id="svg28"
   sodipodi:docname="siema.svg"
   inkscape:version="1.3.2 (091e20e, 2023-11-25)"
   xmlns:inkscape="http://www.inkscape.org/namespaces/inkscape"
   xmlns:sodipodi="http://sodipodi.sourceforge.net/DTD/sodipodi-0.dtd"
   xmlns="http://www.w3.org/2000/svg"
   xmlns:svg="http://www.w3.org/2000/svg">
  <sodipodi:namedview
     id="namedview28"
     pagecolor="#ffffff"
     bordercolor="#000000"
     borderopacity="0.25"
     inkscape:showpageshadow="2"
     inkscape:pageopacity="0.0"
     inkscape:pagecheckerboard="0"
     inkscape:deskcolor="#d1d1d1"
     inkscape:zoom="1.1192412"
     inkscape:cx="369.44673"
     inkscape:cy="87.112591"
     inkscape:window-width="1888"
     inkscape:window-height="922"
     inkscape:window-x="2231"
     inkscape:window-y="401"
     inkscape:window-maximized="0"
     inkscape:current-layer="svg28" />
  <path
     d="M0.0293817 106.669L7.8455 114.265L0.222675 111.309C1.44281 131.477 7.99046 153.087 22.0401 174C22.5475 173.94 23.0428 173.88 23.5381 173.808C0.210589 102.739 32.3932 39.8792 91.757 18.8338C45.5126 37.4152 18.5489 81.4772 21.8952 132.33C30.0375 125.912 38.0952 115.155 47.4334 102.655L35.1354 101.982L52.6643 95.6957C56.0952 91.1405 59.7194 86.4411 63.5851 81.7055C67.7167 76.5373 72.114 71.1047 77.1516 65.4918L56.5543 61.7899L87.2147 54.891C89.957 52.1867 92.8805 49.4584 96.0214 46.694C101.168 42.283 106.882 37.8119 113.526 33.497L103.801 30.5884L121.536 28.6533C131.889 22.8481 144.368 17.5477 160 13.3891C158.925 13.305 152.486 8.79783 137.337 4.59116C122.623 0.624864 99.2228 -3.04095 74.2885 3.89405C66.6898 5.93729 58.9341 8.99014 51.4321 13.1608L48.7261 28.3288L45.9717 16.4179C43.1932 18.1968 40.463 20.1438 37.7932 22.2592L39.5932 30.0476L35.365 24.2544C25.0482 33.0042 15.9878 44.3983 9.57302 58.7251L16.9422 70.8764L7.36227 63.9774C2.48173 76.5253 -0.320954 91.1045 0.0293817 106.669Z"
     fill="url(#paint0_linear_62_277)"
     id="path1" />
  <path
     d="M0.0293817 106.669L7.8455 114.265L0.222675 111.309C1.44281 131.477 7.99046 153.087 22.0401 174C22.5475 173.94 23.0428 173.88 23.5381 173.808C0.210589 102.739 32.3932 39.8792 91.757 18.8338C45.5126 37.4152 18.5489 81.4772 21.8952 132.33C30.0375 125.912 38.0952 115.155 47.4334 102.655L35.1354 101.982L52.6643 95.6957C56.0952 91.1405 59.7194 86.4411 63.5851 81.7055C67.7167 76.5373 72.114 71.1047 77.1516 65.4918L56.5543 61.7899L87.2147 54.891C89.957 52.1867 92.8805 49.4584 96.0214 46.694C101.168 42.283 106.882 37.8119 113.526 33.497L103.801 30.5884L121.536 28.6533C131.889 22.8481 144.368 17.5477 160 13.3891C158.925 13.305 152.486 8.79783 137.337 4.59116C122.623 0.624864 99.2228 -3.04095 74.2885 3.89405C66.6898 5.93729 58.9341 8.99014 51.4321 13.1608L48.7261 28.3288L45.9717 16.4179C43.1932 18.1968 40.463 20.1438 37.7932 22.2592L39.5932 30.0476L35.365 24.2544C25.0482 33.0042 15.9878 44.3983 9.57302 58.7251L16.9422 70.8764L7.36227 63.9774C2.48173 76.5253 -0.320954 91.1045 0.0293817 106.669Z"
     fill="url(#paint1_linear_62_277)"
     id="path2" />
  <path
     d="M 135.24455,124.03904 V 69.472039 h 37.452 v 8.293 h -27.465 v 15.591 h 21.805 v 6.468 h -21.805 v 15.922001 h 28.214 v 8.293 z"
     fill="#4339ac"
     id="path14" />
  <path
     d="M 180.74855,124.03904 V 66.570039 h 9.322 v 57.469001 z"
     fill="#4339ac"
     id="path15" />
  <path
     d="m 200.01055,78.263039 v -9.122 h 9.571 v 9.122 z m 0.084,45.776001 V 83.073039 h 9.321 v 40.966001 z"
     fill="#4339ac"
     id="path16" />
  <path
     d="m 216.27355,124.03904 15.563,-20.981 -14.898,-19.985001 h 11.818 l 10.154,14.761 9.821,-14.761 h 10.569 l -15.064,19.985001 15.813,20.981 h -11.818 l -10.653,-15.342 -10.236,15.342 z"
     fill="#4339ac"
     id="path17" />
  <path
     d="m 266.73755,78.263039 v -9.122 h 9.571 v 9.122 z m 0.084,45.776001 V 83.073039 h 9.321 v 40.966001 z"
     fill="#4339ac"
     id="path18" />
  <path
     d="M 285.91255,124.03904 V 83.073039 h 9.322 l -0.333,11.775 h 0.083 c 1.914,-7.38 6.159,-12.439 14.648,-12.439 8.905,0 13.815,5.805 13.815,16.005 0,2.571001 -0.25,5.888001 -0.416,7.629001 h -8.489 c 0.166,-1.575 0.333,-3.648 0.333,-5.556 0,-6.883001 -2.663,-10.117001 -8.156,-10.117001 -7.074,0 -11.485,5.971 -11.485,15.756001 v 17.913 z"
     fill="#4339ac"
     id="path19" />
  <path
     d="m 364.75655,124.03904 -17.145,-54.567001 h 10.736 l 12.484,42.211001 h 0.25 l 12.151,-41.879001 h 9.987 l 11.984,41.879001 h 0.25 l 12.317,-42.211001 h 9.904 l -17.227,54.567001 h -10.986 l -11.652,-40.220001 h -0.25 l -11.984,40.220001 z"
     fill="#4339ac"
     id="path20" />
  <path
     d="m 467.74455,102.06304 v 3.317 h -30.794 c 0.499,7.878 4.91,12.107 11.901,12.107 5.993,0 10.071,-2.653 10.487,-7.463 h 8.406 c -0.333,9.122 -7.824,14.678 -19.059,14.678 -12.983,0 -21.139,-7.961 -21.139,-20.815 0,-13.268001 8.156,-21.478001 21.139,-21.478001 11.651,0 19.059,6.883 19.059,19.654001 z m -8.406,-2.322001 v -0.581 c 0,-6.136 -3.829,-9.536 -10.57,-9.536 -6.408,0 -10.486,3.317 -11.568,10.117 z"
     fill="#4339ac"
     id="path21" />
  <path
     d="m 500.98655,124.70204 c -8.489,0 -14.148,-3.649 -15.813,-9.371 h -0.083 c 0,2.903 0.167,6.635 0.333,8.708 h -9.321 V 66.570039 h 9.321 v 18.576 c 0,1.741 -0.083,5.058 -0.166,7.049 h 0.083 c 1.748,-5.971 7.407,-9.786 15.563,-9.786 11.818,0 18.892,7.795 18.892,20.400001 0,13.517 -7.24,21.893 -18.809,21.893 z m -2.413,-7.629 c 7.324,0 11.901,-5.308 11.901,-14.015 0,-8.044001 -4.411,-13.020001 -11.735,-13.020001 -8.156,0 -13.316,5.142 -13.316,13.435001 v 2.073 c 0,7.132 5.077,11.527 13.15,11.527 z"
     fill="#4339ac"
     id="path22" />
  <path
     d="M 528.53455,124.03904 V 69.472039 h 24.052 c 14.065,0 21.306,6.054 21.306,15.84 0,7.048 -3.079,11.858 -9.488,13.019 v 0.166 c 6.658,0.995 9.155,5.639001 9.155,12.190001 v 13.352 h -10.07 v -13.186 c 0,-5.473 -2.247,-8.458 -9.571,-8.458 h -15.397 v 21.644 z m 9.987,-28.196001 h 14.232 c 8.073,0 11.568,-3.483 11.568,-9.288 0,-5.473 -3.828,-8.79 -11.818,-8.79 h -13.982 z"
     fill="#4339ac"
     id="path23" />
  <path
     d="M 595.41055,124.03904 V 77.682039 h -16.978 v -8.21 h 43.944 v 8.21 h -16.979 v 46.357001 z"
     fill="#4339ac"
     id="path24" />
  <path
     d="m 652.44355,124.86804 c -16.312,0 -28.131,-10.698 -28.131,-28.029001 0,-17.415 11.652,-28.196 28.131,-28.196 14.398,0 24.635,8.542 24.635,21.147 0,0.58 -0.084,1.658 -0.167,2.653 h -8.822 c 0.083,-0.746 0.083,-1.409 0.083,-1.824 0,-8.376 -6.574,-13.683 -15.396,-13.683 -10.653,0 -18.31,7.712 -18.31,19.903 0,12.190001 7.99,19.736001 18.31,19.736001 9.154,0 15.563,-5.224 15.563,-13.102 v -1.327 h 8.905 v 1.907 c 0,12.356 -10.32,20.815 -24.801,20.815 z"
     fill="#4339ac"
     id="path25" />
  <defs
     id="defs28">
    <linearGradient
       id="paint0_linear_62_277"
       x1="37.624"
       y1="158.219"
       x2="92.4506"
       y2="14.4641"
       gradientUnits="userSpaceOnUse">
      <stop
         stop-color="#46ADD8"
         id="stop25" />
      <stop
         offset="1"
         stop-color="#675AF1"
         id="stop26" />
    </linearGradient>
    <linearGradient
       id="paint1_linear_62_277"
       x1="37.624"
       y1="158.219"
       x2="92.4506"
       y2="14.4641"
       gradientUnits="userSpaceOnUse">
      <stop
         stop-color="#46ADD8"
         id="stop27" />
      <stop
         offset="1"
         stop-color="#675AF1"
         id="stop28" />
    </linearGradient>
  </defs>
</svg>
