<svg width="36" height="40" viewBox="0 0 36 40" fill="none" xmlns="http://www.w3.org/2000/svg">
<path d="M0.00661088 24.2764L1.76524 26.0052L0.0501018 25.3323C0.324632 29.9222 1.79785 34.8404 4.95903 39.6C5.07319 39.5863 5.18464 39.5726 5.29608 39.5562C0.0473825 23.382 7.28846 9.07595 20.6453 4.2863C10.2403 8.5152 4.17349 18.5431 4.92641 30.1165C6.75843 28.6558 8.57142 26.2076 10.6725 23.3628L7.90548 23.2096L11.8495 21.779C12.6214 20.7423 13.4369 19.6728 14.3067 18.5951C15.2363 17.4188 16.2257 16.1825 17.3591 14.905L12.7247 14.0625L19.6233 12.4924C20.2403 11.877 20.8981 11.256 21.6048 10.6269C22.7627 9.62302 24.0484 8.60546 25.5434 7.62346L23.3553 6.9615L27.3455 6.52111C29.6749 5.19992 32.4827 3.99362 36 3.04718C35.7581 3.02803 34.3093 2.00227 30.9008 1.04488C27.5901 0.142211 22.3251 -0.692079 16.7149 0.886233C15.0052 1.35125 13.2602 2.04603 11.5722 2.99521L10.9634 6.44725L10.3436 3.73649C9.71847 4.14133 9.10417 4.58446 8.50346 5.06589L8.90847 6.83841L7.95712 5.51996C5.63584 7.51131 3.59725 10.1044 2.15393 13.365L3.81198 16.1305L1.65651 14.5604C0.55839 17.4161 -0.0722147 20.7341 0.00661088 24.2764Z" fill="url(#paint0_linear_58_23)"/>
<path d="M0.00661088 24.2764L1.76524 26.0052L0.0501018 25.3323C0.324632 29.9222 1.79785 34.8404 4.95903 39.6C5.07319 39.5863 5.18464 39.5726 5.29608 39.5562C0.0473825 23.382 7.28846 9.07595 20.6453 4.2863C10.2403 8.5152 4.17349 18.5431 4.92641 30.1165C6.75843 28.6558 8.57142 26.2076 10.6725 23.3628L7.90548 23.2096L11.8495 21.779C12.6214 20.7423 13.4369 19.6728 14.3067 18.5951C15.2363 17.4188 16.2257 16.1825 17.3591 14.905L12.7247 14.0625L19.6233 12.4924C20.2403 11.877 20.8981 11.256 21.6048 10.6269C22.7627 9.62302 24.0484 8.60546 25.5434 7.62346L23.3553 6.9615L27.3455 6.52111C29.6749 5.19992 32.4827 3.99362 36 3.04718C35.7581 3.02803 34.3093 2.00227 30.9008 1.04488C27.5901 0.142211 22.3251 -0.692079 16.7149 0.886233C15.0052 1.35125 13.2602 2.04603 11.5722 2.99521L10.9634 6.44725L10.3436 3.73649C9.71847 4.14133 9.10417 4.58446 8.50346 5.06589L8.90847 6.83841L7.95712 5.51996C5.63584 7.51131 3.59725 10.1044 2.15393 13.365L3.81198 16.1305L1.65651 14.5604C0.55839 17.4161 -0.0722147 20.7341 0.00661088 24.2764Z" fill="url(#paint1_linear_58_23)"/>
<defs>
<linearGradient id="paint0_linear_58_23" x1="8.46541" y1="36.0085" x2="21.0497" y2="3.38762" gradientUnits="userSpaceOnUse">
<stop stop-color="#46ADD8"/>
<stop offset="1" stop-color="#675AF1"/>
</linearGradient>
<linearGradient id="paint1_linear_58_23" x1="8.46541" y1="36.0085" x2="21.0497" y2="3.38762" gradientUnits="userSpaceOnUse">
<stop stop-color="#46ADD8"/>
<stop offset="1" stop-color="#675AF1"/>
</linearGradient>
</defs>
</svg>
